<svg xmlns="http://www.w3.org/2000/svg" width="300" height="200" viewBox="0 0 300 200">
    <rect width="100%" height="100%" fill="#808080" />
    <path fill="#fff"
        d="M83.55 86.925v27.73h-5.54l-11.2-18.95-.11.02v18.93h-5.56v-27.73h5.56l11.19 18.93.12-.02v-18.91zm3.88 17.64v-.4q0-4.61 2.57-7.55 2.58-2.95 7.13-2.95 4.57 0 7.16 2.94 2.59 2.93 2.59 7.56v.4q0 4.64-2.58 7.57-2.58 2.92-7.14 2.92-4.57 0-7.15-2.92-2.58-2.93-2.58-7.57m5.55-.4v.4q0 2.82.99 4.52t3.19 1.7q2.16 0 3.16-1.71t1-4.51v-.4q0-2.74-1.01-4.48-1.01-1.73-3.18-1.73-2.16 0-3.15 1.74-1 1.74-1 4.47m18.37-15.16h5.56v5.05h3.47v3.9h-3.47v10.49q0 1.2.5 1.72.49.51 1.33.51.44 0 .75-.05.32-.05.74-.16l.47 4.02q-.84.28-1.64.43-.8.14-1.73.14-2.87 0-4.43-1.58-1.55-1.58-1.55-5.01v-10.51h-3.01v-3.9h3.01zm39.92 9.84v4.29h-11.62v11.52h-5.56v-27.73h19.12v4.29h-13.56v7.63zm2.99 5.72v-.4q0-4.61 2.57-7.55 2.57-2.95 7.12-2.95 4.57 0 7.16 2.94 2.59 2.93 2.59 7.56v.4q0 4.64-2.58 7.57-2.58 2.92-7.13 2.92-4.57 0-7.15-2.92-2.58-2.93-2.58-7.57m5.54-.4v.4q0 2.82.99 4.52t3.2 1.7q2.15 0 3.15-1.71t1-4.51v-.4q0-2.74-1.01-4.48-1.01-1.73-3.18-1.73-2.15 0-3.15 1.74t-1 4.47m30.41 10.49-.5-2.97q-.95 1.62-2.41 2.49-1.47.88-3.38.88-3.25 0-5.09-2.09-1.84-2.08-1.84-6.48v-12.43h5.54v12.47q0 2.25.77 3.23.76.98 2.24.98 1.34 0 2.29-.43t1.56-1.27v-14.98h5.56v20.6zm8.83-20.6h5.18l.25 2.95q1.03-1.58 2.53-2.46 1.51-.88 3.38-.88 3.12 0 4.87 1.97 1.75 1.96 1.75 6.15v12.87h-5.58v-12.85q0-2.08-.84-2.95-.83-.86-2.53-.86-1.1 0-1.98.44-.87.45-1.46 1.27v14.95h-5.57zm21.26 10.87v-.4q0-4.88 2.1-7.87 2.11-2.99 5.93-2.99 1.55 0 2.78.67 1.24.67 2.17 1.91v-11.3h5.58v29.71h-4.78l-.45-2.51q-.97 1.42-2.3 2.17-1.32.74-3.04.74-3.78 0-5.89-2.78-2.1-2.78-2.1-7.35m5.54-.4v.4q0 2.7.91 4.26.92 1.55 2.97 1.55 1.2 0 2.1-.49.89-.48 1.46-1.42v-8.78q-.57-.97-1.45-1.51-.89-.54-2.07-.54-2.04 0-2.98 1.81t-.94 4.72" />
</svg>